#!OML:ASF F:\VICON\USERDATA\INSTALL\rory3\rory3.ASF
:FULLY-SPECIFIED
:DEGREES
55
root 0.5721037734171296 17.8926908092614 20.95122731595127 3.343373103955649 2.618443459140301 -3.6767764463441144
lfemur -35.15363600575557 3.728174417468318 -16.598747268556554
ltibia 78.29522879003699
lfoot 0.8923338939628316 -12.69638526010304
ltoes -11.95104450439629
rfemur -8.577371503882793 6.0298446900997815 34.375778512220116
rtibia 45.04434134140104
rfoot -7.111368179465861 -7.325859209829541
rtoes 2.831607574091074
lowerback 15.037515204163569 0.46617753330591 3.785119514006007
upperback -0.460807659415983 2.4756202079852323 2.2536937069476206
thorax -9.731496039244389 0.914930255839012 -0.9682789593746188
lowerneck -19.795000120315525 -5.497685507974279 -1.7788229306228434
upperneck 15.250399187843362 -7.689419143986514 2.8242492807407515
head 8.174254660503166 -3.1527764366131463 0.39252040820501294
lclavicle -1.9521778548038573e-15 1.1013510665873355e-15
lhumerus -56.21079464999848 -5.78297393564129 98.53394972240311
lradius 111.44789570309908
lwrist 46.470292812720835
lhand -18.136762899940308 7.185504663197118
lfingers 7.125020000000001
lthumb 8.19184691013446 37.066413096490805
rclavicle -1.9521588892316494e-15 1.1013659669828004e-15
rhumerus -38.92793312985267 17.16179653416835 -99.8807697387587
rradius 111.17357679432854
rwrist -15.09915413895094
rhand -24.071488303221287 -129.69135015880397
rfingers 7.125020000000001
rthumb 2.5651807228035945 13.105798959979984
56
root 0.6068811329903255 18.07774461613751 22.385808505291706 3.40221784085248 3.2918822802576893 -3.191787353847884
lfemur -33.30840459916706 2.9561609841366185 -17.056512078932247
ltibia 69.26559139465576
lfoot 0.5049876803323554 -12.30822825564946
ltoes -11.518106514514846
rfemur -7.723959791181532 5.67274594529758 33.97060795692923
rtibia 43.34198198898505
rfoot -2.777565310702582 -6.472715676609026
rtoes 2.7509390959489277
lowerback 14.549916887112028 0.5107555047750695 3.878729754531345
upperback -0.6057095004787431 2.635337487041081 2.0905871094556603
thorax -9.698726558581688 0.906630313834579 -1.2444679131982685
lowerneck -19.662500366137643 -5.63557381076512 -1.824704296625035
upperneck 15.325647667031602 -7.742658231388821 2.8834263613924547
head 8.170371324937054 -3.177944412262428 0.41509449619132605
lclavicle -1.9521778548038573e-15 1.1013510665873355e-15
lhumerus -57.198306423167246 -5.479425709272353 98.26961783590609
lradius 111.3118407098564
lwrist 46.41059714641532
lhand -18.15874201945286 7.112532113261387
lfingers 7.125020000000001
lthumb 8.233716465034263 37.132840292608186
rclavicle -1.9521588892316494e-15 1.1013659669828002e-15
rhumerus -38.801295265310834 17.884725370845818 -99.76349116520913
rradius 110.76494588896196
rwrist -14.906067836017785
rhand -24.261285309345897 -134.29471785246847
rfingers 7.125020000000001
rthumb 2.226921650984468 12.715384765052317
57
root 0.642995169304209 18.256103785886168 24.570119540022688 3.5808104241400773 4.094588173274933 -2.7478399879045012
lfemur -33.18428861480685 2.036983167395195 -18.12021761814763
ltibia 59.63473878216936
lfoot -0.2927776259310857 -11.378254156159782
ltoes -10.92586033953001
rfemur -6.816691923379086 5.414400304875033 33.18519858253241
rtibia 43.032145700268686
rfoot 1.0337300293097345 -5.967162128792063
rtoes 2.4426270116535607
lowerback 13.990518817672484 0.5334360596720177 3.8736582291603145
upperback -0.7650924912047686 2.7175602533680006 1.9168665401043354
thorax -9.613136483416778 0.8866043740582581 -1.4832222550853882
lowerneck -19.464759820682595 -5.662528204206042 -1.834492913678108
upperneck 15.412918574327783 -7.763117467620752 2.943380937872011
head 8.181006183208876 -3.196170642984698 0.43964946234364116
lclavicle -1.9521778548038573e-15 1.1013510665873355e-15
lhumerus -58.08734842385681 -5.3196781449401875 98.03615444781738
lradius 111.35507281052845
lwrist 46.23901297488416
lhand -18.01108155072834 7.081140470204055
lfingers 7.125020000000001
lthumb 8.248010339683459 37.054863995107624
rclavicle -1.95215888923165e-15 1.1013659669828e-15
rhumerus -38.9125456681243 18.570575056950123 -99.75997452580279
rradius 110.18210732976647
rwrist -15.111924944000762
rhand -24.16832307385839 -135.15726571012226
rfingers 7.125020000000001
rthumb 2.266130712654691 12.796465038192121
58
root 0.6663951031791857 18.38518049792034 25.44307860041913 3.7427836460172323 4.407098627865696 -2.5560680144388
lfemur -31.561256879189422 1.5867034283455284 -18.480831406318956
ltibia 49.298441926466246
lfoot 0.26832826138466004 -10.157463829306673
ltoes -10.164600600286601
rfemur -4.487247520705349 5.77695391160977 33.361120137261516
rtibia 44.31619196577333
rfoot 5.513595473929794 -5.269478001464895
rtoes 1.7587089243849887
lowerback 13.430216345519069 0.558711787677378 3.8428009840483837
upperback -0.9381412722699903 2.662829354783508 1.722238900923168
thorax -9.489312491412514 0.8814826907937304 -1.6349488837574422
lowerneck -19.43075763207182 -5.736619149031562 -1.8774122690503163
upperneck 15.47039833242178 -7.731694920893179 3.0123708635738664
head 8.183838384391844 -3.2546142758347316 0.4462481245726515
lclavicle -1.9521778548038573e-15 1.1013510665873355e-15
lhumerus -59.17679611130015 -5.317830176921263 97.7475343541625
lradius 111.32378545286299
lwrist 46.301218681146636
lhand -18.046423804990702 7.003751244887774
lfingers 7.125020000000001
lthumb 8.35290485359144 37.02854037616399
rclavicle -1.95215888923165e-15 1.1013659669828002e-15
rhumerus -39.32848173991176 19.086003703795022 -99.8779120986923
rradius 109.5417358840812
rwrist -15.417564208625409
rhand -24.425057312912283 -144.24291487165306
rfingers 7.125020000000001
rthumb 2.3975049839458316 13.013224614762317
59
root 0.67744532281767 18.446466283231395 25.76415612283814 3.777495738526109 4.414820686344971 -2.5289626335866506
lfemur -29.313234330136858 1.3188252539134864 -18.82803384495661
ltibia 39.546521517313785
lfoot 0.5831626459869909 -9.793960220689463
ltoes -9.433431931659474
rfemur -4.151429875091894 5.986279349708267 32.996314435371104
rtibia 46.96729885520955
rfoot 8.792225081858152 -4.806900710098051
rtoes 0.9741489356951984
lowerback 12.868864539425493 0.555202371639766 3.657204195256817
upperback -1.1021213137459132 2.617779780840017 1.541952830808129
thorax -9.391470342690614 0.8788947196895655 -1.7480399547646284
lowerneck -19.414949730347537 -5.7933366490911595 -1.9186715337441747
upperneck 15.46974867738718 -7.69014780534868 3.086838756754664
head 8.185775652612234 -3.301051609835935 0.4611317617268259
lclavicle -1.9521778548038573e-15 1.1013510665873355e-15
lhumerus -60.18159482808148 -5.275374079050534 97.46736125576821
lradius 111.23340721682074
lwrist 46.37921429359451
lhand -17.913574529670573 7.023068984413495
lfingers 7.125020000000001
lthumb 8.340229509332364 36.925397543392464
rclavicle -1.9521588892316494e-15 1.1013659669828002e-15
rhumerus -39.8808376989076 19.509591180206726 -100.07802301427209
rradius 108.95640786385606
rwrist -15.87555559227169
rhand -24.30171880325013 -142.18200729602046
rfingers 7.125020000000001
rthumb 2.321998845125315 12.942890771746368
60
root 0.6808617313293475 18.462626915977395 26.027458704904816 3.682864042379819 4.35970771637687 -2.562690000074246
lfemur -27.944258933015423 1.053940593104959 -19.199087133838304
ltibia 32.228945543888514
lfoot 1.9931747738794423 -10.100549561825815
ltoes -8.408814467057264
rfemur -4.749489113433114 6.124572639388231 32.52384957598528
rtibia 50.55393887938865
rfoot 10.348431456900169 -4.720619313233914
rtoes 0.016409569830929227
lowerback 12.451437219309042 0.5446824690626818 3.461647244837865
upperback -1.2768605862082136 2.5431154582634603 1.3356239933997713
thorax -9.288473843910124 0.8855784012240313 -1.7961853006407165
lowerneck -19.422747256408634 -5.81817931726969 -1.9643901859983446
upperneck 15.441421639959009 -7.622411703561019 3.1706484650014026
head 8.185259348823566 -3.348739925245141 0.4674550641628545
lclavicle -1.9521778548038573e-15 1.1013510665873355e-15
lhumerus -60.9629093184533 -5.2148243864077255 97.20348012865453
lradius 110.62478163429077
lwrist 46.7244190971252
lhand -17.966747492120906 6.905558832364663
lfingers 7.125020000000001
lthumb 8.435043223432315 36.87840324923459
rclavicle -1.9521588892316494e-15 1.1013659669828004e-15
rhumerus -40.47287744263822 19.862515473844695 -100.35253792620078
rradius 108.55119439663014
rwrist -16.076842252449886
rhand -24.570589426097694 -145.57802232865617
rfingers 7.125020000000001
rthumb 2.347743086974935 12.890319957998354
61
root 0.6760778004115768 18.42570364211424 26.085791030204728 3.354956610433803 4.142066804068195 -2.497168161089193
lfemur -27.050063863772227 0.6411952863479964 -19.89398318474021
ltibia 27.660468238261817
lfoot 2.339913151014517 -10.846897805806625
ltoes -7.480035152992476
rfemur -4.946841440716085 5.983849335691679 32.22251864776361
rtibia 54.67841408660144
rfoot 11.176960568646628 -4.859396891876436
rtoes -0.7914825089537442
lowerback 12.237370812868853 0.5487999111061748 3.2965522550840785
upperback -1.399430749565028 2.5481989666444607 1.1715202871944743
thorax -9.114885400921649 0.9339287423279196 -1.736322102532129
lowerneck -19.390312722817736 -5.766734159900216 -1.9710375168102725
upperneck 15.303598807690939 -7.63784320616282 3.2058059579219496
head 8.19383923797952 -3.356660272203356 0.4857927018062088
lclavicle -1.9521778548038573e-15 1.1013510665873355e-15
lhumerus -61.16857562602338 -5.193758576273485 97.00329691588405
lradius 109.92064644212805
lwrist 46.86981017351534
lhand -17.900244653512477 6.803870596005306
lfingers 7.125020000000001
lthumb 8.358680715386825 36.649445320169825
rclavicle -1.9521588892316494e-15 1.1013659669828002e-15
rhumerus -41.092210789456225 20.144595544946405 -100.71127564653413
rradius 108.1537444667393
rwrist -15.706147044498676
rhand -24.534251308244144 -147.33262180732896
rfingers 7.125020000000001
rthumb 2.5173864687309915 13.457622852579018
